<svg clip-rule="evenodd" fill-rule="evenodd" stroke-linejoin="round" stroke-miterlimit="2" viewBox="0 0 560 400" xmlns="http://www.w3.org/2000/svg"><g transform="matrix(.583905 0 0 .583905 144.999 -161.444)"><path d="m331.039 422.866-22.967 67.982c-123.18-.599-115.633 160.616-15.555 167.866 7.184.525 10.751-.445 1.144.354-36.349-.207-63.388-12.442-82.671-30.444-29.987-27.991-44.098-72.836-38.269-113.117 5.133-35.446 25.506-67.166 60.037-86.094 27.267-14.954 60.645-18.362 98.281-6.543" fill="#7fcc45" fill-rule="nonzero"/><path d="m147.148 458.687 36.042 22.308c-5.225 10.828-8.728 22.452-10.474 34.5-5.829 40.283 8.283 85.125 38.269 113.117 19.192 17.923 46.081 30.127 82.172 30.441 6.601.055 11.557-1.007 18.097-2.319 3.088-.619 6.689-1.343 10.577-2.136-17.285 7.175-34.113 9.973-49.902 9.781-41.443-.5-81.289-21.491-106.914-53.656-16.877-21.191-27.731-47.024-30.49-74.387-2.64-26.144 2.191-52.096 12.625-77.652" fill="#009cd9" fill-rule="nonzero"/><path d="m108.085 212.106-.018.03v-.049c.006.007.012.013.018.019zm0 0 6.186-9.998c5.736 5.068 9.909 5.66 12.443 5.66 2.284 0 6.897-.472 6.21-3.959-.287-1.455-1.971-2.42-3.265-3.115-6.095-3.273-11.138-3.874-16.291-8.939-2.221-2.181-3.737-5.504-3.737-8.725 0-4.771 1.576-8.434 5.339-11.373 3.775-2.947 8.022-4.531 14.183-4.531 5.828 0 12.313 2.163 16.611 6.242l-5.148 10.639c-3.854-4.094-10.204-5.231-13.232-4.661-2.107.397-3.869 1.176-3.917 3.43-.056 2.717 6.384 4.848 8.344 5.654 3.905 1.608 7.621 2.992 11.19 6.668 2.262 2.329 3.263 5.301 3.263 8.903 0 4.852-1.137 8.317-4.908 11.167-3.77 2.851-7.252 4.402-13.635 4.402-5.069 0-9.408-.927-12.987-2.802-3.578-1.87-4.618-2.588-6.649-4.662zm-25.864-117.084c2.049 3.644 4.385 7.121 6.992 10.393 13.854 17.39 35.397 28.739 57.803 29.009 8.537.104 17.635-1.409 26.98-5.288-1.087.223-2.133.434-3.122.632l7.572-2.422 2.326 4.659c-46.698 25.517-94.099 1.025-111.006-29.659zm-40.212 106.259 5.219 9.794c-4.925 5.874-13.332 8.404-20.344 8.581-9.609.243-17.925-4.164-23.145-12.579-2.421-3.928-3.669-8.321-3.738-13.284 0-4.904 1.198-9.398 3.615-13.453 2.415-4.076 5.677-7.269 9.805-9.596 4.125-2.343 8.621-3.507 13.472-3.507 5.149 0 11.219.933 19.273 7.76l-6.189 9.812c-5.443-4.946-10.92-6.471-16.136-5.081-4.902 1.309-9.899 5.411-10.008 13.203-.081 5.861 2.257 10.867 7.579 13.682 6.448 3.419 15.125.188 20.596-5.336zm150.969 17.211h-12.058v-5.316c-1.295 1.919-2.94 3.302-4.719 4.287-5.273 2.93-12.694 3.158-17.974.161-3.283-1.863-5.455-4.724-6.648-7.835-3.832-10.034 1.721-17.934 11.238-21.167 5.455-1.851 11.957-2.521 17.083-1.901-.058-7.953-6.246-7.911-9.779-7.578-5.347.508-9.553 3.151-11.647 4.577l-5.167-9.751c5.562-4.526 12.264-6.621 19.512-6.621 7.35 0 12.216 1.623 16.872 7.238 1.274 1.536 2.171 3.275 2.653 5.232.48 1.955.634 3.59.634 7.26zm-12.937-22.162c-2.435.365-5.016.142-7.535.535-3.371.526-8.026 2.115-8.636 5.433-.155.846-.142 1.896.35 2.932 1.184 2.498 3.514 3.628 5.918 3.612 6.021-.045 10.004-7.351 9.903-12.512zm69.959 22.268h-13.384v-25.762c0-1.295.038-2.541.041-3.709.003-3.79-.069-7.106-3.145-8.485-1.105-.497-3.013-.702-4.544-.563-8.258.736-11.703 7.989-11.703 15.661v22.858h-13.384v-50.466h12.425v7.41c4.422-5.709 9.984-8.565 16.684-8.565 2.942 0 5.658.538 8.1 1.591 2.439 1.07 4.295 2.418 5.544 4.07 1.254 1.658 2.13 3.523 2.62 5.613.503 2.094.746 5.078.746 8.972v31.374zm-172.324-51.277c14.772 0 26.749 11.742 26.749 26.23 0 14.487-11.977 26.231-26.749 26.231s-26.748-11.744-26.748-26.231c0-14.488 11.976-26.23 26.748-26.23zm0 11.953c-7.44 0-13.47 6.391-13.47 14.277 0 7.885 6.031 14.277 13.47 14.277s13.471-6.392 13.471-14.277c0-7.886-6.033-14.277-13.471-14.277z" fill="#0578b5" transform="matrix(1.84962 0 0 1.84962 0 415.752)"/></g></svg>